<?xml version="1.0" encoding="UTF-8"?>
<svg width="21px" height="22px" viewBox="0 0 21 22" version="1.1" xmlns="http://www.w3.org/2000/svg" xmlns:xlink="http://www.w3.org/1999/xlink">
    <!-- Generator: Sketch 39.1 (31720) - http://www.bohemiancoding.com/sketch -->
    <title>arrow-pointing-to-left</title>
    <desc>Created with Sketch.</desc>
    <defs></defs>
    <g id="Page-1" stroke="none" stroke-width="1" fill="none" fill-rule="evenodd">
        <g id="Artboard" transform="translate(-274.000000, -122.000000)" fill="#FFFFFF">
            <g id="gunler" transform="translate(274.000000, 91.000000)">
                <g id="arrow-pointing-to-left" transform="translate(0.000000, 31.000000)">
                    <g id="Capa_1">
                        <path d="M20.5144062,8.81473258 C20.2056413,8.46179326 19.8046461,8.28539775 19.3109715,8.28539775 L9.28529216,8.28539775 L13.4579572,4.14969438 C13.8187981,3.79230562 13.9990689,3.36407191 13.9990689,2.86524045 C13.9990689,2.36665618 13.818848,1.93842247 13.4579572,1.58088539 L12.3898504,0.536305618 C12.0291591,0.178916854 11.6018765,0 11.1082019,0 C10.6049501,0 10.172829,0.178719101 9.81223753,0.536305618 L0.541111639,9.71104719 C0.1897981,10.078027 0.0141662708,10.5062112 0.0141662708,10.9955011 C0.0141662708,11.4942831 0.1897981,11.9177213 0.541111639,12.2657169 L9.81223753,21.4687371 C10.1824561,21.8169303 10.6144774,21.9911506 11.1082019,21.9911506 C11.6112542,21.9911506 12.0384869,21.8169303 12.3898005,21.4687371 L13.4579074,20.3962742 C13.8187482,20.057573 13.999019,19.6339371 13.999019,19.1260584 C13.999019,18.617636 13.8187981,18.194 13.4579074,17.8554966 L9.28524228,13.7057034 L19.3109216,13.7057034 C19.8045463,13.7057034 20.2055914,13.5292584 20.5143563,13.1763685 C20.8228219,12.8234292 20.9769549,12.3977663 20.9769549,11.8989843 L20.9769549,10.0922652 C20.9771544,9.59348315 20.8228219,9.16767191 20.5144062,8.81473258 L20.5144062,8.81473258 Z" id="Shape"></path>
                    </g>
                </g>
            </g>
        </g>
    </g>
</svg>