<?xml version="1.0" encoding="UTF-8"?>
<svg width="26px" height="24px" viewBox="0 0 26 24" version="1.1" xmlns="http://www.w3.org/2000/svg" xmlns:xlink="http://www.w3.org/1999/xlink">
    <!-- Generator: Sketch 39.1 (31720) - http://www.bohemiancoding.com/sketch -->
    <title>bath</title>
    <desc>Created with Sketch.</desc>
    <defs></defs>
    <g id="Filter" stroke="none" stroke-width="1" fill="none" fill-rule="evenodd" opacity="0.7">
        <g id="Artboard" transform="translate(-678.000000, -321.000000)" fill="#383742">
            <g id="item" transform="translate(249.000000, 217.000000)">
                <g id="facility" transform="translate(266.000000, 104.000000)">
                    <g id="Group-10" transform="translate(144.000000, 0.000000)">
                        <g id="Group-7">
                            <g id="bath" transform="translate(19.000000, 0.000000)">
                                <g id="bathtub">
                                    <g id="Layer_1">
                                        <path d="M23.2912174,11.687625 L3.84295109,11.687625 L3.84295109,2.92118478 C3.84295109,2.14483696 4.4745163,1.51327174 5.25086413,1.51327174 C6.02721196,1.51327174 6.65877717,2.14483696 6.65877717,2.92118478 L6.65877717,3.42586957 L5.56219565,3.42586957 L5.56219565,4.91365761 L9.24309783,4.91365761 L9.24309783,3.42586957 L8.1465163,3.42586957 L8.1465163,2.92118478 C8.1465163,1.32446739 6.84753261,0.0254836957 5.25081522,0.0254836957 C3.65409783,0.0254836957 2.35511413,1.32446739 2.35511413,2.92118478 L2.35511413,11.687625 L1.75226087,11.687625 C0.786081522,11.687625 0,12.4737065 0,13.4399348 C0,14.1855652 0.468342391,14.823538 1.12617391,15.076125 C1.13625,17.6130489 2.69647826,19.7909022 4.90695652,20.7099783 L3.97878261,22.3175543 L5.26720109,23.0614728 L6.39053804,21.1157609 C6.67169022,21.1554293 6.95876087,21.176462 7.25067391,21.176462 L17.7926087,21.176462 C18.0845217,21.176462 18.3715924,21.1554783 18.6527446,21.1157609 L19.7761304,23.0614728 L21.0645489,22.3175543 L20.136375,20.7098804 C22.3468533,19.7908533 23.9071304,17.6130489 23.9171576,15.0760272 C24.575087,14.8234891 25.0434293,14.1855163 25.0434293,13.4398859 C25.0434783,12.4737065 24.2573967,11.687625 23.2912174,11.687625 L23.2912174,11.687625 Z M17.7927554,19.6886739 L7.25077174,19.6886739 C4.74099457,19.6886739 2.69046196,17.6842174 2.61577174,15.1921957 L22.4278043,15.1921957 C22.3530163,17.6842174 20.3024837,19.6886739 17.7927554,19.6886739 L17.7927554,19.6886739 Z M23.2912174,13.7044076 L1.75226087,13.7044076 C1.60640217,13.7044076 1.48778804,13.5857446 1.48778804,13.4399348 C1.48778804,13.2940761 1.60645109,13.175462 1.75226087,13.175462 L23.2911685,13.175462 C23.4369783,13.175462 23.5556413,13.294125 23.5556413,13.4399348 C23.5556902,13.5857446 23.4369783,13.7044076 23.2912174,13.7044076 L23.2912174,13.7044076 Z" id="Shape"></path>
                                    </g>
                                </g>
                            </g>
                        </g>
                    </g>
                </g>
            </g>
        </g>
    </g>
</svg>