<?xml version="1.0" encoding="UTF-8"?>
<svg width="34px" height="24px" viewBox="0 0 34 24" version="1.1" xmlns="http://www.w3.org/2000/svg" xmlns:xlink="http://www.w3.org/1999/xlink">
    <!-- Generator: Sketch 39.1 (31720) - http://www.bohemiancoding.com/sketch -->
    <title>bed</title>
    <desc>Created with Sketch.</desc>
    <defs></defs>
    <g id="Filter" stroke="none" stroke-width="1" fill="none" fill-rule="evenodd" opacity="0.699999988">
        <g id="Artboard" transform="translate(-761.000000, -321.000000)" fill="#383742">
            <g id="item" transform="translate(249.000000, 217.000000)">
                <g id="facility" transform="translate(266.000000, 104.000000)">
                    <g id="Group-12" transform="translate(234.000000, 0.000000)">
                        <g id="Group-11">
                            <g id="sleeps" transform="translate(12.000000, 0.000000)">
                                <g id="bed">
                                    <g id="Layer_1">
                                        <path d="M29.0538261,0 L29.0538261,1.98371739 L30.2307391,1.98371739 L30.2307391,4.19034783 C29.0572826,3.05295652 27.4587391,2.35154348 25.6993043,2.35154348 L7.69206522,2.35154348 C5.93263043,2.35154348 4.33415217,3.05282609 3.16063043,4.19034783 L3.16063043,1.98371739 L4.33754348,1.98371739 L4.33754348,0 L0,0 L0,1.98371739 L1.17691304,1.98371739 L1.17691304,8.86669565 L1.17691304,11.1832826 L1.17691304,13.167 L1.17691304,21.9987391 L1.17691304,23.9856522 L3.16063043,23.9856522 L3.16063043,21.9987391 L30.2307391,21.9987391 L30.2307391,23.9856522 L32.2144565,23.9856522 L32.2144565,21.9987391 L32.2144565,13.167 L32.2144565,11.1832826 L32.2144565,8.86669565 L32.2144565,1.98378261 L33.3913043,1.98378261 L33.3913043,0 L29.0538261,0 L29.0538261,0 Z M30.2306739,20.015087 L3.16063043,20.015087 L3.16063043,13.1670652 L5.09106522,13.1670652 L15.7038261,13.1670652 L17.6875435,13.1670652 L28.3003043,13.1670652 L30.2307391,13.1670652 L30.2307391,20.015087 L30.2306739,20.015087 Z M7.07563043,11.1833478 C7.10836957,10.023913 8.06165217,9.09091304 9.22891304,9.09091304 L13.5496957,9.09091304 C14.7168913,9.09091304 15.6702391,10.0238478 15.7029783,11.1833478 L7.07563043,11.1833478 L7.07563043,11.1833478 Z M17.6883913,11.1833478 C17.7211304,10.023913 18.674413,9.09091304 19.8416739,9.09091304 L24.1624565,9.09091304 C25.3296522,9.09091304 26.283,10.0238478 26.3157391,11.1833478 L17.6883913,11.1833478 L17.6883913,11.1833478 Z M30.2306739,11.1833478 L28.2986739,11.1833478 C28.265413,8.93015217 26.4233478,7.10719565 24.1623913,7.10719565 L19.8416087,7.10719565 C18.5832391,7.10719565 17.4551087,7.6725 16.695587,8.5616087 C15.936,7.67243478 14.8079348,7.10719565 13.5495652,7.10719565 L9.22891304,7.10719565 C6.96795652,7.10719565 5.12582609,8.93015217 5.09263043,11.1833478 L3.16063043,11.1833478 L3.16063043,8.86676087 C3.16063043,6.36821739 5.1933913,4.3353913 7.69206522,4.3353913 L25.6993043,4.3353913 C28.197913,4.3353913 30.2307391,6.36815217 30.2307391,8.86676087 L30.2307391,11.1833478 L30.2306739,11.1833478 Z" id="Shape"></path>
                                    </g>
                                </g>
                            </g>
                        </g>
                    </g>
                </g>
            </g>
        </g>
    </g>
</svg>