<?xml version="1.0" encoding="iso-8859-1"?>
<!-- Generator: Adobe Illustrator 19.0.0, SVG Export Plug-In . SVG Version: 6.00 Build 0)  -->
<svg version="1.1" id="Layer_1" xmlns="http://www.w3.org/2000/svg" xmlns:xlink="http://www.w3.org/1999/xlink" x="0px" y="0px"
	 viewBox="0 0 512 512" style="enable-background:new 0 0 512 512;" xml:space="preserve">
<g>
	<g>
		<path d="M466.489,224.711V128c0-47.053-38.281-85.333-85.333-85.333H130.844c-47.053,0-85.333,38.281-85.333,85.333v96.711H0
			v244.622h34.133v-96.711h443.733v96.711H512V224.711H466.489z M79.644,128c0-28.232,22.968-51.2,51.2-51.2h250.311
			c28.232,0,51.2,22.968,51.2,51.2v96.711h-56.889V110.933H136.533v113.778H79.644V128z M341.333,145.067v79.644H170.667v-79.644
			H341.333z M477.867,338.489H34.133v-79.644h443.733V338.489z"/>
	</g>
</g>
<g>
</g>
<g>
</g>
<g>
</g>
<g>
</g>
<g>
</g>
<g>
</g>
<g>
</g>
<g>
</g>
<g>
</g>
<g>
</g>
<g>
</g>
<g>
</g>
<g>
</g>
<g>
</g>
<g>
</g>
</svg>
