<?xml version="1.0" encoding="iso-8859-1"?>
<!-- Generator: Adobe Illustrator 19.0.0, SVG Export Plug-In . SVG Version: 6.00 Build 0)  -->
<svg version="1.1" id="Layer_1" xmlns="http://www.w3.org/2000/svg" xmlns:xlink="http://www.w3.org/1999/xlink" x="0px" y="0px"
	 viewBox="0 0 469.333 469.333" style="enable-background:new 0 0 469.333 469.333;" xml:space="preserve">
<g>
	<g>
		<path d="M436.587,316.053l-63.253-158.08V32c0-17.707-14.293-32-32-32h-224c-17.707,0-32,14.293-32,32v126.293l-52.8,158.293
			C32.213,317.653,32,318.827,32,320v138.667c0,5.867,4.8,10.667,10.667,10.667h384c5.867,0,10.667-4.8,10.667-10.667V320
			C437.333,318.613,437.12,317.333,436.587,316.053z M106.667,32c0-5.867,4.8-10.667,10.667-10.667h224
			C347.2,21.333,352,26.133,352,32v117.333h-32v-42.667c0-11.733-9.6-21.333-21.333-21.333H160c-11.733,0-21.333,9.6-21.333,21.333
			v42.667h-32V32z M298.667,106.667v74.667H160v-74.667H298.667z M103.68,170.667h34.987v10.667c0,11.733,9.6,21.333,21.333,21.333
			h138.667c11.733,0,21.333-9.6,21.333-21.333v-10.667h35.413L415.147,320H53.867L103.68,170.667z M416,448H53.333v-22.293
			c18.88-2.987,32.107-13.333,43.947-22.72c12.907-10.24,24-18.987,41.387-18.987s28.48,8.853,41.387,18.987
			c13.973,11.093,29.867,23.68,54.613,23.68c24.32,0,42.027-11.733,59.2-23.147C309.12,393.493,323.413,384,341.333,384
			c21.76,0,58.347,22.293,74.667,36.693V448z M416,393.707c-21.227-15.04-51.84-31.04-74.667-31.04
			c-24.32,0-42.027,11.733-59.2,23.147c-15.253,10.027-29.547,19.52-47.467,19.52c-17.387,0-28.48-8.853-41.387-18.987
			c-13.973-11.093-29.867-23.68-54.613-23.68s-40.64,12.587-54.613,23.68c-10.027,8-18.987,14.933-30.72,17.707v-62.72H416V393.707z
			"/>
	</g>
</g>
<g>
</g>
<g>
</g>
<g>
</g>
<g>
</g>
<g>
</g>
<g>
</g>
<g>
</g>
<g>
</g>
<g>
</g>
<g>
</g>
<g>
</g>
<g>
</g>
<g>
</g>
<g>
</g>
<g>
</g>
</svg>
