<?xml version="1.0" encoding="UTF-8"?>
<svg width="20px" height="20px" viewBox="0 0 20 20" version="1.1" xmlns="http://www.w3.org/2000/svg" xmlns:xlink="http://www.w3.org/1999/xlink">
    <!-- Generator: Sketch 39.1 (31720) - http://www.bohemiancoding.com/sketch -->
    <title>calendar</title>
    <desc>Created with Sketch.</desc>
    <defs></defs>
    <g id="Home" stroke="none" stroke-width="1" fill="none" fill-rule="evenodd" opacity="0.5">
        <g id="desktop" transform="translate(-696.000000, -101.000000)" fill="#000000">
            <g id="header">
                <g id="searchBar" transform="translate(0.000000, 80.000000)">
                    <g id="dateBox" transform="translate(686.000000, 13.000000)">
                        <g id="Group-2" transform="translate(10.000000, 8.000000)">
                            <g id="calendar">
                                <g id="Layer_1">
                                    <g id="Group">
                                        <path d="M13.7142701,1.2987013 L13.7142701,0 L12.3116727,0 L12.3116727,1.2987013 L7.55845714,1.2987013 L7.55845714,0 L6.15585974,0 L6.15585974,1.2987013 L0,1.2987013 L0,20 L19.8701299,20 L19.8701299,1.2987013 L13.7142701,1.2987013 L13.7142701,1.2987013 Z M6.15585974,2.85714286 L6.15585974,4.15584416 L7.55845714,4.15584416 L7.55845714,2.85714286 L12.3117195,2.85714286 L12.3117195,3.8961039 L13.7143169,3.8961039 L13.7143169,2.85714286 L18.4675325,2.85714286 L18.4675325,5.45454545 L1.4025974,5.45454545 L1.4025974,2.85714286 L6.15585974,2.85714286 L6.15585974,2.85714286 Z M1.4025974,18.4415584 L1.4025974,7.01298701 L18.4675325,7.01298701 L18.4675325,18.4415584 L1.4025974,18.4415584 L1.4025974,18.4415584 Z" id="Shape"></path>
                                        <path d="M9.53911169,12.9717403 C9.45617143,12.852987 9.35583896,12.7535584 9.23802078,12.6735584 C9.1202026,12.5935584 8.98929351,12.539013 8.84529351,12.5099221 C9.10271688,12.446961 9.31002078,12.3233247 9.46711169,12.139013 C9.6242026,11.9548052 9.70274805,11.7196883 9.70274805,11.4335584 C9.70274805,11.2299221 9.66123117,11.0420779 9.57838442,10.8699221 C9.49544416,10.6978701 9.3808987,10.5487792 9.23474805,10.4226494 C9.0885039,10.2966234 8.91402078,10.1971948 8.71111169,10.1244675 C8.5082026,10.0517403 8.28892987,10.0153766 8.05329351,10.0153766 C7.9005039,10.0153766 7.74668571,10.0311688 7.59183896,10.0626494 C7.4368987,10.0942338 7.2885039,10.139013 7.14674805,10.1971948 C7.0048987,10.2553766 6.87398961,10.3281039 6.75402078,10.4153766 C6.63395844,10.5026494 6.53474805,10.6020779 6.4562026,10.7135584 L7.12383896,11.5717403 C7.15432208,11.5135584 7.19686753,11.452987 7.25147532,11.3899221 C7.30598961,11.326961 7.37144416,11.2687792 7.44783896,11.2153766 C7.52414026,11.1620779 7.6125039,11.1184416 7.71292987,11.0844675 C7.81326234,11.0505974 7.92892987,11.0335584 8.05983896,11.0335584 C8.10780779,11.0335584 8.16232208,11.0408312 8.22347532,11.0553766 C8.28453506,11.0699221 8.34129351,11.0942338 8.39365714,11.1281039 C8.44602078,11.1620779 8.49071688,11.2093506 8.52783896,11.2699221 C8.56486753,11.3305974 8.58347532,11.4044675 8.58347532,11.4917403 C8.58347532,11.5984416 8.5528987,11.6893506 8.49183896,11.7644675 C8.43068571,11.8396883 8.34783896,11.9015065 8.24311169,11.9499221 C8.13838442,11.9984416 8.01617143,12.0335584 7.87656623,12.0553766 C7.73686753,12.0771948 7.58632208,12.0881039 7.42492987,12.0881039 L7.20892987,12.0881039 L7.20892987,13.0553766 L7.42492987,13.0553766 C7.83504935,13.0553766 8.15035325,13.1038961 8.37074805,13.2008312 C8.59104935,13.2978701 8.70129351,13.4578701 8.70129351,13.6808312 C8.70129351,13.772987 8.68165714,13.8542338 8.64238442,13.9244675 C8.60311169,13.9948052 8.54962597,14.052987 8.48202078,14.099013 C8.41432208,14.1451429 8.3368987,14.1802597 8.24965714,14.2044675 C8.16232208,14.2287792 8.07068571,14.2408312 7.97474805,14.2408312 C7.81765714,14.2408312 7.68235325,14.2142338 7.56892987,14.1608312 C7.45541299,14.1075325 7.36162597,14.0457143 7.28747532,13.9753766 C7.21323117,13.9051429 7.15544416,13.8335584 7.11402078,13.7608312 C7.0725039,13.6881039 7.04529351,13.6299221 7.0322026,13.5862857 L6.48892987,14.379013 C6.61544416,14.6844675 6.80638442,14.9160519 7.06165714,15.0735584 C7.31692987,15.2311688 7.62783896,15.3099221 7.99438442,15.3099221 C8.21253506,15.3099221 8.42853506,15.281974 8.64238442,15.2262857 C8.85614026,15.1705974 9.0482026,15.0820779 9.21838442,14.9608312 C9.38856623,14.8396883 9.52704935,14.6857143 9.63402078,14.499013 C9.7408987,14.3124156 9.79438442,14.0905974 9.79438442,13.8335584 C9.79438442,13.6735584 9.7725039,13.5196883 9.72892987,13.3717403 C9.68526234,13.2238961 9.62195844,13.0905974 9.53911169,12.9717403 L9.53911169,12.9717403 Z" id="Shape"></path>
                                        <path d="M12.6547481,10.0371429 L11.587839,10.0371429 C11.5834442,10.0469091 11.5474442,10.0880519 11.479839,10.1607792 C11.4121403,10.2335065 11.3260208,10.3123636 11.2212935,10.3971429 C11.1165662,10.482026 11.0020208,10.5596364 10.8776104,10.6298701 C10.7532935,10.7002078 10.6321558,10.7353247 10.5143377,10.7353247 L10.5143377,11.8044156 C10.6015792,11.8044156 10.699761,11.7825974 10.8088831,11.738961 C10.9179117,11.6953247 11.0248831,11.6407792 11.1296104,11.5753247 C11.2342909,11.5098701 11.3281247,11.442026 11.4110649,11.3716883 C11.4939117,11.3014545 11.5528208,11.2371429 11.5877922,11.178961 L11.5877922,14.1971429 L10.6648831,14.1971429 L10.6648831,15.2444156 L13.4860208,15.2444156 L13.4860208,14.1971429 L12.6547481,14.1971429 L12.6547481,10.0371429 L12.6547481,10.0371429 Z" id="Shape"></path>
                                    </g>
                                </g>
                            </g>
                        </g>
                    </g>
                </g>
            </g>
        </g>
    </g>
</svg>