<?xml version="1.0" encoding="UTF-8"?>
<svg width="19px" height="18px" viewBox="0 0 19 18" version="1.1" xmlns="http://www.w3.org/2000/svg" xmlns:xlink="http://www.w3.org/1999/xlink">
    <!-- Generator: Sketch 39.1 (31720) - http://www.bohemiancoding.com/sketch -->
    <title>profile</title>
    <desc>Created with Sketch.</desc>
    <defs></defs>
    <g id="Home" stroke="none" stroke-width="1" fill="none" fill-rule="evenodd" opacity="0.5">
        <g id="desktop" transform="translate(-976.000000, -101.000000)" fill="#000000">
            <g id="header">
                <g id="searchBar" transform="translate(0.000000, 80.000000)">
                    <g id="guestBox" transform="translate(966.000000, 13.000000)">
                        <g id="profile" transform="translate(10.000000, 8.000000)">
                            <g id="Capa_1">
                                <path d="M9.39446097,10.0893346 C12.1803123,10.0893346 14.4399145,7.82969888 14.4399145,5.04388104 C14.4399145,2.2580632 12.1802788,0.0138847584 9.39446097,0.0138847584 C6.60864312,0.0138847584 4.34900743,2.27352045 4.34900743,5.04388104 C4.34900743,7.81424164 6.60860967,10.0893346 9.39446097,10.0893346 L9.39446097,10.0893346 Z M9.39446097,1.32942379 C11.4373941,1.32942379 13.1089182,3.0009145 13.1089182,5.04388104 C13.1089182,7.08684758 11.4373941,8.75830483 9.39446097,8.75830483 C7.35152788,8.75830483 5.68000372,7.08681413 5.68000372,5.04384758 C5.68000372,3.00088104 7.35149442,1.32942379 9.39446097,1.32942379 L9.39446097,1.32942379 Z" id="Shape"></path>
                                <path d="M0.665498141,17.9670446 L18.1853197,17.9670446 C18.5567621,17.9670446 18.8508178,17.6729888 18.8508178,17.3015465 C18.8508178,13.8192491 16.0185613,10.9715019 12.5207732,10.9715019 L6.33004461,10.9715019 C2.84774721,10.9715019 0,13.8037584 0,17.3015465 C0,17.6729888 0.294055762,17.9670446 0.665498141,17.9670446 L0.665498141,17.9670446 Z M6.33004461,12.3024981 L12.5207732,12.3024981 C15.058974,12.3024981 17.1483457,14.1906914 17.4733829,16.6360149 L1.37743494,16.6360149 C1.70243866,14.2061822 3.79184387,12.3024981 6.33004461,12.3024981 L6.33004461,12.3024981 Z" id="Shape"></path>
                            </g>
                        </g>
                    </g>
                </g>
            </g>
        </g>
    </g>
</svg>