<?xml version="1.0" encoding="UTF-8"?>
<svg width="28px" height="24px" viewBox="0 0 28 24" version="1.1" xmlns="http://www.w3.org/2000/svg" xmlns:xlink="http://www.w3.org/1999/xlink">
    <!-- Generator: Sketch 39.1 (31720) - http://www.bohemiancoding.com/sketch -->
    <title>home</title>
    <desc>Created with Sketch.</desc>
    <defs></defs>
    <g id="Filter" stroke="none" stroke-width="1" fill="none" fill-rule="evenodd" opacity="0.699999988">
        <g id="Artboard" transform="translate(-524.000000, -321.000000)" fill="#383742">
            <g id="item" transform="translate(249.000000, 217.000000)">
                <g id="facility" transform="translate(266.000000, 104.000000)">
                    <g id="Group-4">
                        <g id="type">
                            <g id="home" transform="translate(9.000000, 0.000000)">
                                <g id="Layer_1">
                                    <path d="M27.1374436,9.48806987 L14.1612164,0.176436681 C13.9109908,-0.00309170306 13.5710476,-0.00309170306 13.320929,0.176436681 L0.34459482,9.48806987 C0.0276424394,9.71554585 -0.0412230576,10.151738 0.190877193,10.4623755 C0.422977444,10.7730131 0.868090226,10.8404017 1.18498914,10.6130306 L13.7410192,1.60286463 L26.2970493,10.6129782 C26.4236591,10.7038952 26.5708003,10.7476507 26.7166583,10.7476507 C26.9356591,10.7476507 27.1517728,10.6488734 27.2911078,10.4623231 C27.5232615,10.151738 27.454396,9.71554585 27.1374436,9.48806987 L27.1374436,9.48806987 Z" id="Shape"></path>
                                    <path d="M23.6990343,10.7708122 C23.3062657,10.7708122 22.9877627,11.082917 22.9877627,11.4679127 L22.9877627,22.5639301 L17.2976976,22.5639301 L17.2976976,16.5070218 C17.2976976,14.5849258 15.7021353,13.0212576 13.7410727,13.0212576 C11.78001,13.0212576 10.1844478,14.5850306 10.1844478,16.5070218 L10.1844478,22.5639825 L4.49432916,22.5639825 L4.49432916,11.4679651 C4.49432916,11.0829694 4.17582623,10.7708646 3.78305764,10.7708646 C3.39028906,10.7708646 3.07178613,11.0829694 3.07178613,11.4679651 L3.07178613,23.2611354 C3.07178613,23.646131 3.39028906,23.9582358 3.78305764,23.9582358 L10.8957193,23.9582358 C11.2697744,23.9582358 11.575873,23.6750044 11.6042105,23.3154236 C11.6059215,23.2991266 11.6069908,23.28131 11.6069908,23.2611354 L11.6069908,16.5070742 C11.6069908,15.3537642 12.5643175,14.4155109 13.7410727,14.4155109 C14.9178279,14.4155109 15.8751546,15.3538166 15.8751546,16.5070742 L15.8751546,23.2611354 C15.8751546,23.2812052 15.8762239,23.2987074 15.8779348,23.3147948 C15.9059515,23.6746376 16.2121571,23.9582358 16.5864261,23.9582358 L23.6990877,23.9582358 C24.0919098,23.9582358 24.4103592,23.646131 24.4103592,23.2611354 L24.4103592,11.4679651 C24.4103058,11.082917 24.0918563,10.7708122 23.6990343,10.7708122 L23.6990343,10.7708122 Z" id="Shape"></path>
                                </g>
                            </g>
                        </g>
                    </g>
                </g>
            </g>
        </g>
    </g>
</svg>