<?xml version="1.0" encoding="UTF-8"?>
<svg width="23px" height="24px" viewBox="0 0 23 24" version="1.1" xmlns="http://www.w3.org/2000/svg" xmlns:xlink="http://www.w3.org/1999/xlink">
    <!-- Generator: Sketch 39.1 (31720) - http://www.bohemiancoding.com/sketch -->
    <title>moon-phase-outline</title>
    <desc>Created with Sketch.</desc>
    <defs></defs>
    <g id="Filter" stroke="none" stroke-width="1" fill="none" fill-rule="evenodd" opacity="0.7">
        <g id="Artboard" transform="translate(-871.000000, -321.000000)" fill="#000000">
            <g id="item" transform="translate(249.000000, 217.000000)">
                <g id="facility" transform="translate(266.000000, 104.000000)">
                    <g id="Group-13" transform="translate(320.000000, 0.000000)">
                        <g id="Group-5" transform="translate(26.000000, 0.000000)">
                            <g id="moon-phase-outline" transform="translate(10.000000, 0.000000)">
                                <g id="Capa_1">
                                    <path d="M22.789603,16.4065968 C22.7535528,16.1983052 22.6628843,16.0213394 22.5183577,15.87559 C22.1980319,15.5528747 21.8260197,15.485139 21.4024296,15.6724374 C20.2657075,16.2031708 19.0873431,16.4683189 17.8681507,16.4683189 C16.3386766,16.4683189 14.9281032,16.0889112 13.6364303,15.3291116 C12.3447574,14.5695308 11.3218867,13.5394442 10.5675467,12.2386333 C9.81293519,10.937877 9.43587377,9.51755809 9.43587377,7.97740319 C9.43587377,6.78079271 9.67112318,5.64393622 10.1411876,4.56688838 C10.6113607,3.48989522 11.2908856,2.54558542 12.179491,1.73390433 C12.5206108,1.41146241 12.5982491,1.03675626 12.412243,0.610059226 C12.2365524,0.183580866 11.9213845,-0.0192437358 11.4667391,0.001476082 C9.88568714,0.0638542141 8.38726841,0.420464692 6.97148286,1.07059681 C5.55575161,1.72089294 4.33889379,2.57658314 3.32096369,3.63815945 C2.30314218,4.69951708 1.49700713,5.95610023 0.902775704,7.40763554 C0.30870716,8.85928018 0.0115100102,10.3811207 0.0115100102,11.9731572 C0.0115100102,13.5965194 0.32673227,15.1469522 0.957068205,16.6245649 C1.58756702,18.1021777 2.43480149,19.3768565 3.49926026,20.448656 C4.56361045,21.5201276 5.8294944,22.3734123 7.29707499,23.0084009 C8.7644927,23.6429522 10.3040109,23.9604738 11.9160095,23.9604738 C14.2310417,23.9604738 16.3672888,23.328328 18.3254564,22.0639818 C20.2837326,20.7997995 21.7485986,19.1114897 22.7201086,16.9991071 C22.8028504,16.8119727 22.8260333,16.614451 22.789603,16.4065968 L22.789603,16.4065968 Z M16.155548,21.0023508 C14.817455,21.6425877 13.4042212,21.9624601 11.9160095,21.9624601 C10.5726502,21.9624601 9.28879539,21.6971481 8.06411944,21.1665786 C6.83960638,20.6360091 5.78540889,19.9258497 4.90179844,19.0359909 C4.01840516,18.1464055 3.31325416,17.0850478 2.78601968,15.8519727 C2.25900238,14.6188428 1.99546658,13.3260683 1.99546658,11.9732665 C1.99546658,9.73607289 2.65430607,7.73822323 3.97187648,5.97949886 C5.28933831,4.22104784 6.98679335,3.02957631 9.06386155,2.40524829 C7.9891415,4.12215034 7.45170003,5.97949886 7.45170003,7.97751253 C7.45170003,9.87148975 7.91666101,11.6248018 8.84685443,13.2379954 C9.77677638,14.850697 11.0427689,16.1251572 12.6446149,17.0620319 C14.2461893,17.9984692 15.9871327,18.4667153 17.8681507,18.4667153 C18.4466916,18.4667153 19.0152969,18.4199727 19.5733695,18.3262141 C18.633132,19.4708884 17.4935867,20.3629339 16.155548,21.0023508 L16.155548,21.0023508 Z" id="Shape"></path>
                                </g>
                            </g>
                        </g>
                    </g>
                </g>
            </g>
        </g>
    </g>
</svg>