<?xml version="1.0" encoding="iso-8859-1"?>
<!-- Generator: Adobe Illustrator 19.0.0, SVG Export Plug-In . SVG Version: 6.00 Build 0)  -->
<svg version="1.1" id="Layer_1" xmlns="http://www.w3.org/2000/svg" xmlns:xlink="http://www.w3.org/1999/xlink" x="0px" y="0px"
	 viewBox="0 0 512 512" style="enable-background:new 0 0 512 512;" xml:space="preserve">
<g>
	<g>
		<path d="M499.2,358.401c-17.664,0-26.871,9.702-33.604,16.785c-5.811,6.118-8.644,8.815-15.036,8.815
			c-6.4,0-9.242-2.697-15.053-8.815c-6.716-7.083-15.932-16.785-33.579-16.785c-17.664,0-26.871,9.702-33.604,16.785
			c-5.811,6.118-8.653,8.815-15.053,8.815c-6.391,0-9.225-2.697-15.036-8.815c-6.724-7.083-15.932-16.785-33.596-16.785
			s-26.871,9.702-33.604,16.785c-5.794,6.118-8.636,8.815-15.036,8.815c-6.4,0-9.242-2.697-15.053-8.823
			c-6.724-7.074-15.932-16.777-33.57-16.777c-17.647,0-26.871,9.702-33.604,16.777c-5.811,6.127-8.644,8.823-15.044,8.823
			c-6.4,0-9.242-2.697-15.053-8.815c-6.724-7.083-15.94-16.785-33.587-16.785c-17.664,0-26.872,9.702-33.604,16.785
			c-5.811,6.118-8.644,8.815-15.044,8.815c-6.391,0-9.225-2.697-15.036-8.815c-6.733-7.083-15.94-16.785-33.604-16.785
			c-7.074,0-12.8,5.726-12.8,12.8c0,7.074,5.726,12.8,12.8,12.8c6.4,0,9.242,2.697,15.053,8.815
			c6.724,7.083,15.932,16.785,33.587,16.785c17.664,0,26.871-9.702,33.604-16.785c5.803-6.118,8.644-8.815,15.044-8.815
			c6.391,0,9.224,2.697,15.036,8.815c6.724,7.083,15.94,16.785,33.604,16.785c17.647,0,26.872-9.702,33.604-16.777
			c5.803-6.127,8.644-8.823,15.044-8.823c6.391,0,9.216,2.697,15.01,8.815c6.741,7.083,15.949,16.785,33.613,16.785
			s26.871-9.702,33.596-16.785c5.803-6.118,8.644-8.815,15.044-8.815c6.4,0,9.242,2.697,15.053,8.815
			c6.716,7.083,15.932,16.785,33.579,16.785c17.664,0,26.871-9.702,33.604-16.785c5.811-6.118,8.653-8.815,15.053-8.815
			c6.391,0,9.225,2.697,15.036,8.815c6.724,7.083,15.932,16.785,33.596,16.785c17.647,0,26.863-9.702,33.587-16.785
			c5.811-6.118,8.653-8.815,15.053-8.815c7.074,0,12.8-5.726,12.8-12.8C512,364.127,506.274,358.401,499.2,358.401z"/>
	</g>
</g>
<g>
	<g>
		<path d="M448,192.018c-35.285,0-64,28.706-64,64c0,35.285,28.715,64,64,64c35.294,0,64-28.715,64-64
			C512,220.724,483.294,192.018,448,192.018z M448,294.418c-21.205,0-38.4-17.195-38.4-38.4c0-21.205,17.195-38.4,38.4-38.4
			c21.205,0,38.4,17.195,38.4,38.4S469.205,294.418,448,294.418z"/>
	</g>
</g>
<g>
	<g>
		<path d="M422.34,109.603c-3.072-6.349-10.701-9.028-17.109-5.888l-115.046,56.115c-6.349,3.098-8.986,10.76-5.888,17.109
			l50.5,103.543l-80.538,39.279c-6.349,3.098-8.986,10.76-5.888,17.109c2.21,4.557,6.767,7.194,11.511,7.194
			c1.877,0,3.789-0.41,5.598-1.297l80.529-39.279l16.828,34.509c2.21,4.548,6.758,7.185,11.511,7.185
			c1.877,0,3.789-0.41,5.598-1.297c6.349-3.098,8.986-10.761,5.888-17.109l-22.434-46.003v-0.009c0,0,0-0.009-0.009-0.009
			L312.9,177.213l103.552-50.5C422.801,123.615,425.438,115.952,422.34,109.603z"/>
	</g>
</g>
<g>
</g>
<g>
</g>
<g>
</g>
<g>
</g>
<g>
</g>
<g>
</g>
<g>
</g>
<g>
</g>
<g>
</g>
<g>
</g>
<g>
</g>
<g>
</g>
<g>
</g>
<g>
</g>
<g>
</g>
</svg>
